<svg xmlns="http://www.w3.org/2000/svg" xmlns:xlink="http://www.w3.org/1999/xlink" width="203" height="59" viewBox="0 0 203 59"><defs><style>.a{clip-path:url(#a);}.b{fill:#fff;}.c{fill:url(#b);}.d{fill:url(#c);}.e{fill:url(#d);}.f{fill:url(#e);}.g{fill:url(#f);}.h{fill:url(#j);}.i{fill:#7159c1;}</style><clipPath id="a"><rect width="203" height="59"/></clipPath><linearGradient id="b" x1="0.5" y1="0.004" x2="0.5" y2="1.009" gradientUnits="objectBoundingBox"><stop offset="0" stop-color="#1a6dff"/><stop offset="1" stop-color="#c822ff"/></linearGradient><linearGradient id="c" y1="-2.639" y2="4.394" xlink:href="#b"/><linearGradient id="d" y1="-17.917" y2="3.183" xlink:href="#b"/><linearGradient id="e" y1="-15.917" y2="5.183" xlink:href="#b"/><linearGradient id="f" y1="-8.458" y2="2.092" xlink:href="#b"/><linearGradient id="j" x1="0.5" y1="-0.833" x2="0.5" y2="1.833" gradientUnits="objectBoundingBox"><stop offset="0" stop-color="#6dc7ff"/><stop offset="1" stop-color="#e6abff"/></linearGradient></defs><g class="a"><rect class="b" width="203" height="59"/><path class="c" d="M77.78,21.745,76.356,18.9l-.775-1.549-2.019-4.039A4.155,4.155,0,0,0,69.824,11H14.694a4.158,4.158,0,0,0-3.739,2.309L8.162,18.9h0L6.739,21.747A7.02,7.02,0,0,0,6,24.872V62.6a6.981,6.981,0,0,0,6.973,6.973H71.545A6.981,6.981,0,0,0,78.518,62.6V24.872A7.048,7.048,0,0,0,77.78,21.745Zm-6.713-7.188,2.02,4.043h0l.777,1.554a1.39,1.39,0,0,1-1.245,2.007H70.15V13.835a1.369,1.369,0,0,1,.917.723Zm-53.91-.768h50.2v8.367h-50.2Zm-3.7.768a1.369,1.369,0,0,1,.916-.722v8.321H11.9a1.39,1.39,0,0,1-1.245-2.008L11.43,18.6h0ZM75.729,62.6a4.189,4.189,0,0,1-4.184,4.184H12.973A4.189,4.189,0,0,1,8.789,62.6V24.872a4.167,4.167,0,0,1,.177-1.139A4.141,4.141,0,0,0,11.9,24.946H72.62a4.146,4.146,0,0,0,2.934-1.213,4.219,4.219,0,0,1,.176,1.139Z" transform="translate(-6 -11)"/><path class="d" d="M47.1,27H24.789A2.792,2.792,0,0,0,22,29.789v2.789a2.792,2.792,0,0,0,2.789,2.789H47.1a2.792,2.792,0,0,0,2.789-2.789V29.789A2.792,2.792,0,0,0,47.1,27ZM24.789,32.578V29.789H47.1v2.789Z" transform="translate(0.313 -4.687)"/><rect class="e" width="19.524" height="2.789" transform="translate(5.578 50.205)"/><rect class="f" width="13.946" height="2.789" transform="translate(5.578 44.626)"/><rect class="g" width="2.789" height="5.578" transform="translate(58.572 47.415)"/><rect class="g" width="2.789" height="5.578" transform="translate(64.15 47.415)"/><rect class="g" width="2.789" height="5.578" transform="translate(47.415 47.415)"/><rect class="g" width="2.789" height="5.578" transform="translate(52.994 47.415)"/><rect class="h" width="22.313" height="2.789" transform="translate(25.102 25.102)"/><path class="i" d="M14.145-20.254a3.931,3.931,0,0,1-.033.548,1.025,1.025,0,0,1-.116.374.583.583,0,0,1-.191.208.422.422,0,0,1-.224.066H5.711v7.3h7.438a.467.467,0,0,1,.224.058.524.524,0,0,1,.191.191.933.933,0,0,1,.116.357,4.037,4.037,0,0,1,.033.573,3.75,3.75,0,0,1-.033.54,1.013,1.013,0,0,1-.116.365.668.668,0,0,1-.191.216.388.388,0,0,1-.224.075H5.711V-.432a.422.422,0,0,1-.066.224.423.423,0,0,1-.232.166,2.52,2.52,0,0,1-.432.1,4.7,4.7,0,0,1-.7.042A4.767,4.767,0,0,1,3.6.058a2.514,2.514,0,0,1-.448-.1.423.423,0,0,1-.232-.166.422.422,0,0,1-.066-.224V-20.32a1.067,1.067,0,0,1,.34-.9,1.177,1.177,0,0,1,.722-.257H13.58a.422.422,0,0,1,.224.066A.569.569,0,0,1,14-21.2a1.123,1.123,0,0,1,.116.39A4.116,4.116,0,0,1,14.145-20.254ZM20.9-.415a.371.371,0,0,1-.066.224.521.521,0,0,1-.216.158,1.518,1.518,0,0,1-.415.1A5.679,5.679,0,0,1,19.523.1a5.506,5.506,0,0,1-.664-.033,1.645,1.645,0,0,1-.423-.1.456.456,0,0,1-.216-.158.409.409,0,0,1-.058-.224V-15.356a.421.421,0,0,1,.058-.216.432.432,0,0,1,.216-.166,1.645,1.645,0,0,1,.423-.1,5.506,5.506,0,0,1,.664-.033,5.679,5.679,0,0,1,.681.033,1.518,1.518,0,0,1,.415.1.488.488,0,0,1,.216.166.381.381,0,0,1,.066.216ZM21.217-20.4a1.8,1.8,0,0,1-.365,1.312,1.963,1.963,0,0,1-1.345.349,1.93,1.93,0,0,1-1.32-.34,1.77,1.77,0,0,1-.357-1.287,1.8,1.8,0,0,1,.365-1.312,1.963,1.963,0,0,1,1.345-.349,1.93,1.93,0,0,1,1.32.34A1.77,1.77,0,0,1,21.217-20.4ZM28.7-.415a.371.371,0,0,1-.066.224.521.521,0,0,1-.216.158,1.518,1.518,0,0,1-.415.1A5.679,5.679,0,0,1,27.326.1a5.506,5.506,0,0,1-.664-.033,1.645,1.645,0,0,1-.423-.1.456.456,0,0,1-.216-.158.409.409,0,0,1-.058-.224v-22.18a.453.453,0,0,1,.058-.232.432.432,0,0,1,.216-.166,1.644,1.644,0,0,1,.423-.1,5.506,5.506,0,0,1,.664-.033,5.679,5.679,0,0,1,.681.033,1.518,1.518,0,0,1,.415.1.488.488,0,0,1,.216.166.409.409,0,0,1,.066.232ZM46.518-8.533a1.146,1.146,0,0,1-.325.921,1.12,1.12,0,0,1-.742.274H35.61a9.217,9.217,0,0,0,.25,2.241,4.322,4.322,0,0,0,.834,1.71,3.753,3.753,0,0,0,1.518,1.1,6.05,6.05,0,0,0,2.285.382,9.35,9.35,0,0,0,1.9-.174,11.264,11.264,0,0,0,1.443-.39q.609-.216,1-.39a1.641,1.641,0,0,1,.592-.174.381.381,0,0,1,.208.058.374.374,0,0,1,.142.174,1.213,1.213,0,0,1,.075.324,4.324,4.324,0,0,1,.025.506,3.629,3.629,0,0,1-.017.374q-.017.158-.042.282a.722.722,0,0,1-.083.224A.943.943,0,0,1,45.6-.9a2.441,2.441,0,0,1-.54.3A7.862,7.862,0,0,1,43.895-.2a16.193,16.193,0,0,1-1.652.357,12.067,12.067,0,0,1-2,.158A9.259,9.259,0,0,1,37.013-.2a5.99,5.99,0,0,1-2.333-1.527,6.531,6.531,0,0,1-1.428-2.54,11.841,11.841,0,0,1-.481-3.553,11.194,11.194,0,0,1,.5-3.461,7.332,7.332,0,0,1,1.436-2.606,6.276,6.276,0,0,1,2.266-1.644,7.431,7.431,0,0,1,2.972-.573,7.186,7.186,0,0,1,3,.564,5.664,5.664,0,0,1,2.034,1.519,6.107,6.107,0,0,1,1.17,2.241,9.811,9.811,0,0,1,.374,2.748Zm-2.756-.813a4.991,4.991,0,0,0-.961-3.387,3.656,3.656,0,0,0-3-1.229,3.968,3.968,0,0,0-1.787.382,3.865,3.865,0,0,0-1.286,1.013,4.632,4.632,0,0,0-.8,1.469,6.131,6.131,0,0,0-.317,1.751Zm16.3,4.864a4.727,4.727,0,0,1-.423,2.042,4.157,4.157,0,0,1-1.2,1.511A5.434,5.434,0,0,1,56.578,0,8.439,8.439,0,0,1,54.2.315,8.933,8.933,0,0,1,52.685.191,8.884,8.884,0,0,1,51.39-.125a6.732,6.732,0,0,1-.971-.4A2.864,2.864,0,0,1,49.838-.9a.956.956,0,0,1-.266-.465,3.162,3.162,0,0,1-.083-.813,3.575,3.575,0,0,1,.033-.531,1.8,1.8,0,0,1,.083-.349.37.37,0,0,1,.141-.191.378.378,0,0,1,.208-.058,1.183,1.183,0,0,1,.54.224q.357.224.88.49a8.11,8.11,0,0,0,1.237.49,5.491,5.491,0,0,0,1.644.224,4.932,4.932,0,0,0,1.262-.149,3.055,3.055,0,0,0,.979-.44,1.958,1.958,0,0,0,.639-.739,2.35,2.35,0,0,0,.224-1.062,1.72,1.72,0,0,0-.324-1.062,3.114,3.114,0,0,0-.855-.764,7.071,7.071,0,0,0-1.2-.589q-.664-.257-1.37-.54a14.123,14.123,0,0,1-1.378-.639,5.271,5.271,0,0,1-1.2-.872,3.977,3.977,0,0,1-.855-1.229,4.117,4.117,0,0,1-.324-1.71,4.285,4.285,0,0,1,.34-1.685,3.913,3.913,0,0,1,1.021-1.411,5.118,5.118,0,0,1,1.7-.971A7.068,7.068,0,0,1,55.3-16.1a7.259,7.259,0,0,1,1.2.1,8.206,8.206,0,0,1,1.079.249,5.193,5.193,0,0,1,.822.324,3.571,3.571,0,0,1,.515.307.9.9,0,0,1,.232.232.722.722,0,0,1,.083.224q.025.125.05.307a3.4,3.4,0,0,1,.025.448,4.175,4.175,0,0,1-.025.49,1.224,1.224,0,0,1-.083.34.442.442,0,0,1-.141.191.312.312,0,0,1-.183.058.919.919,0,0,1-.432-.183,6.048,6.048,0,0,0-.73-.39,8.069,8.069,0,0,0-1.054-.39,4.808,4.808,0,0,0-1.386-.183,4.327,4.327,0,0,0-1.229.158,2.357,2.357,0,0,0-.872.448,1.9,1.9,0,0,0-.515.689,2.13,2.13,0,0,0-.174.863,1.753,1.753,0,0,0,.332,1.087,3.168,3.168,0,0,0,.863.772,7.271,7.271,0,0,0,1.212.6q.681.266,1.386.548t1.395.631a5.212,5.212,0,0,1,1.22.847,3.828,3.828,0,0,1,.855,1.2A3.914,3.914,0,0,1,60.064-4.482ZM78.459-6.159A6.457,6.457,0,0,1,78.2-4.292a5.527,5.527,0,0,1-.722,1.536,5.341,5.341,0,0,1-1.121,1.2A6.474,6.474,0,0,1,74.881-.7a8.44,8.44,0,0,1-1.76.523A11.857,11.857,0,0,1,70.972,0H65.36a1.177,1.177,0,0,1-.722-.257,1.067,1.067,0,0,1-.34-.9V-20.32a1.067,1.067,0,0,1,.34-.9,1.178,1.178,0,0,1,.722-.257h4.881a11.317,11.317,0,0,1,3.154.365,5.582,5.582,0,0,1,2.05,1.063,4.393,4.393,0,0,1,1.237,1.71,6,6,0,0,1,.415,2.291,5.744,5.744,0,0,1-.183,1.461,4.831,4.831,0,0,1-.54,1.287,4.384,4.384,0,0,1-.9,1.054,4.741,4.741,0,0,1-1.237.764,5.2,5.2,0,0,1,1.644.606,4.99,4.99,0,0,1,1.336,1.121,5.22,5.22,0,0,1,.9,1.594A5.839,5.839,0,0,1,78.459-6.159Zm-4.3-9.612a4.351,4.351,0,0,0-.215-1.411,2.614,2.614,0,0,0-.679-1.071,3.04,3.04,0,0,0-1.209-.672,6.808,6.808,0,0,0-1.971-.232H67.137V-12.2h3.246a4.61,4.61,0,0,0,1.789-.291,3.208,3.208,0,0,0,1.126-.78,3.027,3.027,0,0,0,.654-1.146A4.468,4.468,0,0,0,74.159-15.771Zm1.295,9.778a4.349,4.349,0,0,0-.306-1.693,3.213,3.213,0,0,0-.895-1.229,3.954,3.954,0,0,0-1.475-.755,8.139,8.139,0,0,0-2.228-.257H67.137v7.57h4.142a5.632,5.632,0,0,0,1.707-.232,3.83,3.83,0,0,0,1.284-.689,3.174,3.174,0,0,0,.87-1.137A3.721,3.721,0,0,0,75.454-5.993ZM96.372-8.052a11.191,11.191,0,0,1-.481,3.362,7.417,7.417,0,0,1-1.436,2.648A6.506,6.506,0,0,1,92.064-.307a8.307,8.307,0,0,1-3.329.623,8.62,8.62,0,0,1-3.212-.548A5.869,5.869,0,0,1,83.24-1.826a6.754,6.754,0,0,1-1.361-2.54,11.784,11.784,0,0,1-.448-3.387,11.373,11.373,0,0,1,.473-3.362,7.318,7.318,0,0,1,1.428-2.648,6.44,6.44,0,0,1,2.382-1.727,8.39,8.39,0,0,1,3.337-.614,8.62,8.62,0,0,1,3.212.548,5.869,5.869,0,0,1,2.283,1.594,6.845,6.845,0,0,1,1.37,2.54A11.52,11.52,0,0,1,96.372-8.052Zm-2.839.183a11.151,11.151,0,0,0-.226-2.291,5.63,5.63,0,0,0-.746-1.893,3.7,3.7,0,0,0-1.407-1.287,4.662,4.662,0,0,0-2.211-.473,4.728,4.728,0,0,0-2.1.432,3.855,3.855,0,0,0-1.449,1.22,5.475,5.475,0,0,0-.846,1.868,9.488,9.488,0,0,0-.276,2.357A11.237,11.237,0,0,0,84.5-5.628a5.438,5.438,0,0,0,.754,1.884,3.789,3.789,0,0,0,1.415,1.278,4.662,4.662,0,0,0,2.211.473,4.741,4.741,0,0,0,2.094-.432,3.868,3.868,0,0,0,1.457-1.212A5.273,5.273,0,0,0,93.265-5.5,9.842,9.842,0,0,0,93.533-7.869ZM111.064-.73a.833.833,0,0,1,.133.39.3.3,0,0,1-.158.257,1.217,1.217,0,0,1-.481.141A6.841,6.841,0,0,1,109.72.1q-.5,0-.789-.025a2.078,2.078,0,0,1-.465-.083.67.67,0,0,1-.266-.149.978.978,0,0,1-.158-.208l-3.586-5.927L100.888-.365a.978.978,0,0,1-.158.208.67.67,0,0,1-.266.149,2.054,2.054,0,0,1-.457.083Q99.726.1,99.261.1a6.094,6.094,0,0,1-.789-.042,1.039,1.039,0,0,1-.448-.141.283.283,0,0,1-.133-.257.856.856,0,0,1,.158-.39L102.7-8.019l-4.4-7.022a.933.933,0,0,1-.141-.39.3.3,0,0,1,.149-.266,1.058,1.058,0,0,1,.481-.141q.324-.033.855-.033.481,0,.772.025a2.361,2.361,0,0,1,.457.075.585.585,0,0,1,.249.133.937.937,0,0,1,.149.2l3.4,5.562,3.453-5.562a1.2,1.2,0,0,1,.149-.183.677.677,0,0,1,.224-.141,1.455,1.455,0,0,1,.4-.083q.257-.025.706-.025a7.6,7.6,0,0,1,.789.033,1.136,1.136,0,0,1,.457.125.253.253,0,0,1,.133.257,1.071,1.071,0,0,1-.166.415L106.449-8.1Z" transform="translate(90.964 40.41)"/></g></svg>