<svg xmlns="http://www.w3.org/2000/svg" xmlns:xlink="http://www.w3.org/1999/xlink" width="297" height="85" viewBox="0 0 297 85"><defs><style>.a{clip-path:url(#k);}.b{fill:url(#a);}.c{fill:url(#b);}.d{fill:url(#c);}.e{fill:url(#d);}.f{fill:url(#e);}.g{fill:url(#i);}.h{fill:#7159c1;}.i{fill:#fff;}</style><linearGradient id="a" x1="0.5" y1="0.004" x2="0.5" y2="1.009" gradientUnits="objectBoundingBox"><stop offset="0" stop-color="#1a6dff"/><stop offset="1" stop-color="#c822ff"/></linearGradient><linearGradient id="b" y1="-2.639" y2="4.394" xlink:href="#a"/><linearGradient id="c" y1="-17.917" y2="3.183" xlink:href="#a"/><linearGradient id="d" y1="-15.917" y2="5.183" xlink:href="#a"/><linearGradient id="e" y1="-8.458" y2="2.092" xlink:href="#a"/><linearGradient id="i" x1="0.5" y1="-0.833" x2="0.5" y2="1.833" gradientUnits="objectBoundingBox"><stop offset="0" stop-color="#6dc7ff"/><stop offset="1" stop-color="#e6abff"/></linearGradient><clipPath id="k"><rect width="297" height="85"/></clipPath></defs><g id="j" class="a"><rect class="i" width="297" height="85"/><g transform="translate(-6 -11)"><path class="b" d="M109.163,26.443l-2.046-4.091L106,20.126l-2.9-5.8A5.972,5.972,0,0,0,97.729,11H18.495a5.976,5.976,0,0,0-5.374,3.319L9.107,22.352v0L7.062,26.445A10.089,10.089,0,0,0,6,30.937V85.159A10.033,10.033,0,0,0,16.021,95.181H100.2a10.033,10.033,0,0,0,10.021-10.021V30.937A10.129,10.129,0,0,0,109.163,26.443Zm-9.649-10.33,2.9,5.8h0l1.116,2.233a2,2,0,0,1-1.79,2.884H98.2V15.075A1.968,1.968,0,0,1,99.515,16.113Zm-77.48-1.1H94.189V27.034H22.034Zm-5.325,1.1a1.968,1.968,0,0,1,1.317-1.038v11.96H14.478a2,2,0,0,1-1.79-2.886L13.8,21.917h0Zm89.506,69.046a6.02,6.02,0,0,1-6.013,6.013H16.021a6.02,6.02,0,0,1-6.013-6.013V30.937a5.989,5.989,0,0,1,.255-1.638,5.951,5.951,0,0,0,4.215,1.744h87.267a5.959,5.959,0,0,0,4.217-1.744,6.063,6.063,0,0,1,.253,1.638Z" transform="translate(0)"/><path class="c" d="M58.077,27H26.009A4.013,4.013,0,0,0,22,31.009v4.009a4.013,4.013,0,0,0,4.009,4.009H58.077a4.013,4.013,0,0,0,4.009-4.009V31.009A4.013,4.013,0,0,0,58.077,27ZM26.009,35.017V31.009H58.077l0,4.009Z" transform="translate(16.069 16.069)"/><rect class="d" width="28.06" height="4.009" transform="translate(14.017 83.155)"/><rect class="e" width="20.043" height="4.009" transform="translate(14.017 75.138)"/><rect class="f" width="4.009" height="8.017" transform="translate(90.181 79.146)"/><rect class="f" width="4.009" height="8.017" transform="translate(98.198 79.146)"/><rect class="f" width="4.009" height="8.017" transform="translate(74.146 79.146)"/><rect class="f" width="4.009" height="8.017" transform="translate(82.163 79.146)"/><rect class="g" width="32.069" height="4.009" transform="translate(42.077 47.077)"/></g><g transform="translate(-6 -1)"><path class="h" d="M20.8-29.785a5.78,5.78,0,0,1-.049.806,1.508,1.508,0,0,1-.171.549.857.857,0,0,1-.281.305.62.62,0,0,1-.33.1H8.4v10.742H19.336a.686.686,0,0,1,.33.085.771.771,0,0,1,.281.281,1.372,1.372,0,0,1,.171.525,5.937,5.937,0,0,1,.049.842,5.515,5.515,0,0,1-.049.793,1.49,1.49,0,0,1-.171.537.983.983,0,0,1-.281.317.571.571,0,0,1-.33.11H8.4V-.635a.62.62,0,0,1-.1.33.623.623,0,0,1-.342.244,3.706,3.706,0,0,1-.635.146A6.908,6.908,0,0,1,6.3.146a7.01,7.01,0,0,1-1-.061,3.7,3.7,0,0,1-.659-.146A.623.623,0,0,1,4.3-.305a.62.62,0,0,1-.1-.33V-29.883a1.569,1.569,0,0,1,.5-1.331,1.732,1.732,0,0,1,1.062-.378H19.971a.62.62,0,0,1,.33.1.837.837,0,0,1,.281.317,1.651,1.651,0,0,1,.171.574A6.053,6.053,0,0,1,20.8-29.785ZM30.737-.61a.545.545,0,0,1-.1.33.766.766,0,0,1-.317.232,2.232,2.232,0,0,1-.61.146,8.352,8.352,0,0,1-1,.049A8.1,8.1,0,0,1,27.734.1a2.418,2.418,0,0,1-.623-.146.671.671,0,0,1-.317-.232.6.6,0,0,1-.085-.33V-22.583a.619.619,0,0,1,.085-.317.635.635,0,0,1,.317-.244,2.419,2.419,0,0,1,.623-.146,8.1,8.1,0,0,1,.977-.049,8.352,8.352,0,0,1,1,.049,2.232,2.232,0,0,1,.61.146.718.718,0,0,1,.317.244.561.561,0,0,1,.1.317ZM31.2-30a2.652,2.652,0,0,1-.537,1.929,2.887,2.887,0,0,1-1.978.513,2.839,2.839,0,0,1-1.941-.5,2.6,2.6,0,0,1-.525-1.892,2.652,2.652,0,0,1,.537-1.929,2.887,2.887,0,0,1,1.978-.513,2.839,2.839,0,0,1,1.941.5A2.6,2.6,0,0,1,31.2-30ZM42.212-.61a.545.545,0,0,1-.1.33.766.766,0,0,1-.317.232,2.232,2.232,0,0,1-.61.146,8.352,8.352,0,0,1-1,.049A8.1,8.1,0,0,1,39.209.1a2.418,2.418,0,0,1-.623-.146.671.671,0,0,1-.317-.232.6.6,0,0,1-.085-.33V-33.228a.666.666,0,0,1,.085-.342.635.635,0,0,1,.317-.244,2.418,2.418,0,0,1,.623-.146,8.1,8.1,0,0,1,.977-.049,8.352,8.352,0,0,1,1,.049,2.232,2.232,0,0,1,.61.146.718.718,0,0,1,.317.244.6.6,0,0,1,.1.342Zm26.2-11.938a1.685,1.685,0,0,1-.478,1.355,1.647,1.647,0,0,1-1.092.4H52.368a13.554,13.554,0,0,0,.368,3.3A6.355,6.355,0,0,0,53.963-4.98,5.519,5.519,0,0,0,56.2-3.369a8.9,8.9,0,0,0,3.361.562,13.751,13.751,0,0,0,2.8-.256,16.564,16.564,0,0,0,2.122-.574q.9-.317,1.472-.574a2.413,2.413,0,0,1,.871-.256.56.56,0,0,1,.307.085.55.55,0,0,1,.208.256,1.784,1.784,0,0,1,.11.476,6.359,6.359,0,0,1,.037.745,5.337,5.337,0,0,1-.024.549q-.024.232-.061.415a1.062,1.062,0,0,1-.122.33,1.387,1.387,0,0,1-.22.281,3.59,3.59,0,0,1-.793.439,11.561,11.561,0,0,1-1.709.6,23.814,23.814,0,0,1-2.429.525A17.746,17.746,0,0,1,59.18.464a13.616,13.616,0,0,1-4.749-.757A8.809,8.809,0,0,1,51-2.539a9.6,9.6,0,0,1-2.1-3.735,17.413,17.413,0,0,1-.708-5.225,16.461,16.461,0,0,1,.732-5.09,10.782,10.782,0,0,1,2.112-3.833,9.23,9.23,0,0,1,3.333-2.417,10.928,10.928,0,0,1,4.37-.842,10.568,10.568,0,0,1,4.407.83,8.329,8.329,0,0,1,2.991,2.234,8.981,8.981,0,0,1,1.721,3.3,14.428,14.428,0,0,1,.549,4.041Zm-4.053-1.2a7.339,7.339,0,0,0-1.413-4.98,5.377,5.377,0,0,0-4.409-1.807,5.835,5.835,0,0,0-2.628.562,5.684,5.684,0,0,0-1.892,1.489,6.812,6.812,0,0,0-1.179,2.161,9.016,9.016,0,0,0-.467,2.576ZM88.33-6.592a6.952,6.952,0,0,1-.623,3,6.113,6.113,0,0,1-1.77,2.222A7.992,7.992,0,0,1,83.2,0a12.41,12.41,0,0,1-3.491.464A13.137,13.137,0,0,1,77.478.281a13.064,13.064,0,0,1-1.9-.464,9.9,9.9,0,0,1-1.428-.586,4.212,4.212,0,0,1-.854-.549A1.406,1.406,0,0,1,72.9-2a4.65,4.65,0,0,1-.122-1.2,5.257,5.257,0,0,1,.049-.781,2.646,2.646,0,0,1,.122-.513.544.544,0,0,1,.208-.281.556.556,0,0,1,.305-.085,1.74,1.74,0,0,1,.793.33q.525.33,1.294.72a11.926,11.926,0,0,0,1.819.72,8.075,8.075,0,0,0,2.417.33,7.253,7.253,0,0,0,1.855-.22,4.492,4.492,0,0,0,1.44-.647,2.88,2.88,0,0,0,.94-1.086,3.456,3.456,0,0,0,.33-1.562,2.53,2.53,0,0,0-.476-1.562A4.579,4.579,0,0,0,82.617-8.96a10.4,10.4,0,0,0-1.758-.867q-.977-.378-2.014-.793a20.768,20.768,0,0,1-2.026-.94,7.752,7.752,0,0,1-1.77-1.282,5.848,5.848,0,0,1-1.257-1.807,6.055,6.055,0,0,1-.476-2.515,6.3,6.3,0,0,1,.5-2.478,5.755,5.755,0,0,1,1.5-2.075,7.527,7.527,0,0,1,2.5-1.428,10.393,10.393,0,0,1,3.5-.537,10.675,10.675,0,0,1,1.758.146,12.067,12.067,0,0,1,1.587.366,7.636,7.636,0,0,1,1.208.476,5.252,5.252,0,0,1,.757.452,1.33,1.33,0,0,1,.342.342,1.062,1.062,0,0,1,.122.33q.037.183.073.452a4.993,4.993,0,0,1,.037.659,6.139,6.139,0,0,1-.037.72,1.8,1.8,0,0,1-.122.5.649.649,0,0,1-.208.281.458.458,0,0,1-.269.085,1.351,1.351,0,0,1-.635-.269,8.9,8.9,0,0,0-1.074-.574,11.866,11.866,0,0,0-1.55-.574,7.07,7.07,0,0,0-2.039-.269,6.364,6.364,0,0,0-1.807.232,3.466,3.466,0,0,0-1.282.659,2.788,2.788,0,0,0-.757,1.013,3.132,3.132,0,0,0-.256,1.27,2.578,2.578,0,0,0,.488,1.6,4.659,4.659,0,0,0,1.27,1.135,10.693,10.693,0,0,0,1.782.879q1,.391,2.039.806t2.051.928A7.664,7.664,0,0,1,86.6-10.791a5.629,5.629,0,0,1,1.257,1.758A5.756,5.756,0,0,1,88.33-6.592Zm27.051-2.466A9.5,9.5,0,0,1,115-6.311a8.128,8.128,0,0,1-1.062,2.258,7.854,7.854,0,0,1-1.648,1.758,9.521,9.521,0,0,1-2.173,1.27,12.412,12.412,0,0,1-2.588.769A17.437,17.437,0,0,1,104.37,0H96.118a1.732,1.732,0,0,1-1.062-.378,1.569,1.569,0,0,1-.5-1.331V-29.883a1.569,1.569,0,0,1,.5-1.331,1.732,1.732,0,0,1,1.062-.378H103.3a16.643,16.643,0,0,1,4.639.537,8.208,8.208,0,0,1,3.015,1.563,6.46,6.46,0,0,1,1.819,2.515,8.816,8.816,0,0,1,.61,3.369,8.446,8.446,0,0,1-.269,2.148,7.1,7.1,0,0,1-.793,1.892A6.447,6.447,0,0,1,111-18.018a6.972,6.972,0,0,1-1.819,1.123A7.646,7.646,0,0,1,111.6-16a7.339,7.339,0,0,1,1.965,1.648,7.676,7.676,0,0,1,1.331,2.344A8.587,8.587,0,0,1,115.381-9.058Zm-6.323-14.136a6.4,6.4,0,0,0-.317-2.075,3.845,3.845,0,0,0-1-1.575,4.47,4.47,0,0,0-1.778-.989,10.012,10.012,0,0,0-2.9-.342H98.73v10.229H103.5a6.78,6.78,0,0,0,2.631-.427,4.717,4.717,0,0,0,1.656-1.147,4.451,4.451,0,0,0,.962-1.685A6.571,6.571,0,0,0,109.058-23.193Zm1.9,14.38a6.4,6.4,0,0,0-.451-2.49A4.725,4.725,0,0,0,109.2-13.11a5.815,5.815,0,0,0-2.169-1.111,11.969,11.969,0,0,0-3.277-.378H98.73V-3.467h6.091a8.283,8.283,0,0,0,2.51-.342,5.633,5.633,0,0,0,1.888-1.013A4.668,4.668,0,0,0,110.5-6.494,5.472,5.472,0,0,0,110.962-8.813Zm30.762-3.027a16.458,16.458,0,0,1-.708,4.944A10.908,10.908,0,0,1,138.9-3a9.568,9.568,0,0,1-3.516,2.551,12.216,12.216,0,0,1-4.9.916,12.676,12.676,0,0,1-4.724-.806,8.631,8.631,0,0,1-3.357-2.344,9.932,9.932,0,0,1-2-3.735,17.329,17.329,0,0,1-.659-4.98,16.725,16.725,0,0,1,.7-4.944,10.761,10.761,0,0,1,2.1-3.894,9.471,9.471,0,0,1,3.5-2.539,12.338,12.338,0,0,1,4.907-.9,12.676,12.676,0,0,1,4.724.806,8.631,8.631,0,0,1,3.357,2.344,10.067,10.067,0,0,1,2.014,3.735A16.942,16.942,0,0,1,141.724-11.841Zm-4.175.269a16.4,16.4,0,0,0-.333-3.369,8.279,8.279,0,0,0-1.1-2.783,5.439,5.439,0,0,0-2.069-1.892,6.856,6.856,0,0,0-3.252-.7,6.953,6.953,0,0,0-3.092.635,5.669,5.669,0,0,0-2.131,1.794,8.051,8.051,0,0,0-1.244,2.747,13.953,13.953,0,0,0-.406,3.467,16.524,16.524,0,0,0,.333,3.394,8,8,0,0,0,1.109,2.771,5.572,5.572,0,0,0,2.081,1.88,6.856,6.856,0,0,0,3.252.7,6.972,6.972,0,0,0,3.079-.635,5.688,5.688,0,0,0,2.143-1.782,7.755,7.755,0,0,0,1.232-2.734A14.474,14.474,0,0,0,137.549-11.572Zm25.781,10.5a1.225,1.225,0,0,1,.2.574.436.436,0,0,1-.232.378,1.789,1.789,0,0,1-.708.208,10.061,10.061,0,0,1-1.233.061q-.732,0-1.16-.037a3.056,3.056,0,0,1-.684-.122.986.986,0,0,1-.391-.22,1.438,1.438,0,0,1-.232-.305l-5.273-8.716L148.364-.537a1.438,1.438,0,0,1-.232.305.986.986,0,0,1-.391.22,3.021,3.021,0,0,1-.671.122q-.415.037-1.1.037a8.962,8.962,0,0,1-1.16-.061,1.528,1.528,0,0,1-.659-.208.416.416,0,0,1-.2-.378,1.259,1.259,0,0,1,.232-.574l6.836-10.718-6.47-10.327a1.373,1.373,0,0,1-.208-.574.434.434,0,0,1,.22-.391,1.556,1.556,0,0,1,.708-.208q.476-.049,1.257-.049.708,0,1.135.037a3.472,3.472,0,0,1,.671.11.861.861,0,0,1,.366.2,1.378,1.378,0,0,1,.22.293l5,8.179,5.078-8.179a1.757,1.757,0,0,1,.22-.269,1,1,0,0,1,.33-.208,2.14,2.14,0,0,1,.586-.122q.378-.037,1.038-.037a11.18,11.18,0,0,1,1.16.049,1.671,1.671,0,0,1,.671.183.373.373,0,0,1,.2.378,1.575,1.575,0,0,1-.244.61l-6.421,10.205Z" transform="translate(137.735 60.087)"/></g></g></svg>