<svg xmlns="http://www.w3.org/2000/svg" xmlns:xlink="http://www.w3.org/1999/xlink" width="203" height="59" viewBox="0 0 203 59"><defs><style>.a{clip-path:url(#k);}.b{fill:url(#a);}.c{fill:url(#b);}.d{fill:url(#c);}.e{fill:url(#d);}.f{fill:url(#e);}.g{fill:url(#i);}.h{fill:#7159c1;font-size:34px;font-family:Calibri;}.i{fill:#fff;}</style><linearGradient id="a" x1="0.5" y1="0.004" x2="0.5" y2="1.009" gradientUnits="objectBoundingBox"><stop offset="0" stop-color="#1a6dff"/><stop offset="1" stop-color="#c822ff"/></linearGradient><linearGradient id="b" y1="-2.639" y2="4.394" xlink:href="#a"/><linearGradient id="c" y1="-17.917" y2="3.183" xlink:href="#a"/><linearGradient id="d" y1="-15.917" y2="5.183" xlink:href="#a"/><linearGradient id="e" y1="-8.458" y2="2.092" xlink:href="#a"/><linearGradient id="i" x1="0.5" y1="-0.833" x2="0.5" y2="1.833" gradientUnits="objectBoundingBox"><stop offset="0" stop-color="#6dc7ff"/><stop offset="1" stop-color="#e6abff"/></linearGradient><clipPath id="k"><rect width="203" height="59"/></clipPath></defs><g id="j" class="a"><rect class="i" width="203" height="59"/><g transform="translate(0 0)"><path class="b" d="M77.78,21.745,76.356,18.9l-.775-1.549-2.019-4.039A4.155,4.155,0,0,0,69.824,11H14.694a4.158,4.158,0,0,0-3.739,2.309L8.162,18.9h0L6.739,21.747A7.02,7.02,0,0,0,6,24.872V62.6a6.981,6.981,0,0,0,6.973,6.973H71.545A6.981,6.981,0,0,0,78.518,62.6V24.872A7.048,7.048,0,0,0,77.78,21.745Zm-6.713-7.188L73.087,18.6h0l.777,1.554a1.39,1.39,0,0,1-1.245,2.007H70.15V13.835A1.369,1.369,0,0,1,71.067,14.558Zm-53.91-.768h50.2v8.367h-50.2Zm-3.705.768a1.369,1.369,0,0,1,.916-.722v8.321H11.9a1.39,1.39,0,0,1-1.245-2.008l.775-1.552h0ZM75.729,62.6a4.189,4.189,0,0,1-4.184,4.184H12.973A4.189,4.189,0,0,1,8.789,62.6V24.872a4.167,4.167,0,0,1,.177-1.139A4.141,4.141,0,0,0,11.9,24.946h60.72a4.146,4.146,0,0,0,2.934-1.213,4.219,4.219,0,0,1,.176,1.139Z" transform="translate(-6 -11)"/><path class="c" d="M47.1,27H24.789A2.792,2.792,0,0,0,22,29.789v2.789a2.792,2.792,0,0,0,2.789,2.789H47.1a2.792,2.792,0,0,0,2.789-2.789V29.789A2.792,2.792,0,0,0,47.1,27ZM24.789,32.578V29.789H47.1l0,2.789Z" transform="translate(0.313 -4.687)"/><rect class="d" width="19.524" height="2.789" transform="translate(5.578 50.205)"/><rect class="e" width="13.946" height="2.789" transform="translate(5.578 44.626)"/><rect class="f" width="2.789" height="5.578" transform="translate(58.572 47.415)"/><rect class="f" width="2.789" height="5.578" transform="translate(64.15 47.415)"/><rect class="f" width="2.789" height="5.578" transform="translate(47.415 47.415)"/><rect class="f" width="2.789" height="5.578" transform="translate(52.994 47.415)"/><rect class="g" width="22.313" height="2.789" transform="translate(25.102 25.102)"/></g><text class="h" transform="translate(90.964 40.41)"><tspan x="0" y="0">FilesBox</tspan></text></g></svg>